<?xml version="1.0" encoding="iso-8859-1"?>
<!-- Uploaded to: SVG Repo, www.svgrepo.com, Generator: SVG Repo Mixer Tools -->
<svg version="1.1" id="Layer_1" xmlns="http://www.w3.org/2000/svg" xmlns:xlink="http://www.w3.org/1999/xlink" 
	 viewBox="0 0 512.002 512.002" xml:space="preserve">
<path style="fill:#CFCDD2;" d="M511.987,256.002c0-0.268,0.016-0.533,0.014-0.802h-0.027c-0.204-27.911-11.081-54.129-30.78-73.976
	c-20.079-20.229-46.835-31.371-75.337-31.371h-31.403c-25.017,0-48.537,9.742-66.227,27.432L177.286,308.226
	c-10.615,10.613-24.726,16.459-39.737,16.459h-31.403c-18.442,0-35.754-7.209-48.748-20.299
	c-12.868-12.964-19.925-30.13-19.925-48.385c0-18.255,7.057-35.421,19.925-48.385c12.994-13.09,30.306-20.299,48.748-20.299h31.403
	c15.011,0,29.123,5.846,39.737,16.459l26.491-26.491c-17.69-17.69-41.21-27.432-66.227-27.432h-31.403
	c-28.503,0-55.258,11.141-75.337,31.371c-19.7,19.846-30.577,46.064-30.78,73.975H0c-0.002,0.268,0.014,0.534,0.014,0.802
	s-0.015,0.533-0.014,0.802h0.027c0.204,27.911,11.081,54.129,30.78,73.975c20.079,20.229,46.835,31.371,75.337,31.371h31.403
	c25.017,0,48.538-9.742,66.227-27.432l130.939-130.94c10.613-10.613,24.726-16.459,39.737-16.459h31.405
	c18.442,0,35.754,7.209,48.748,20.299c12.868,12.964,19.925,30.13,19.925,48.385c0,18.255-7.057,35.421-19.925,48.385
	c-12.994,13.09-30.306,20.299-48.748,20.299h-31.405c-15.009,0-29.122-5.846-39.737-16.459l-26.491,26.491
	c17.69,17.69,41.209,27.432,66.227,27.432h31.405c28.503,0,55.257-11.14,75.337-31.371c19.701-19.846,30.577-46.064,30.78-73.975
	h0.027C512.003,256.535,511.987,256.269,511.987,256.002z"/>
<path style="fill:#AEADB3;" d="M512,255.2h-0.027c-0.204-27.911-11.081-54.129-30.78-73.976
	c-20.079-20.229-46.835-31.371-75.337-31.371h-31.403c-25.017,0-48.537,9.742-66.227,27.432l-65.469,65.469l26.491,26.491
	l65.469-65.469c10.613-10.614,24.726-16.459,39.737-16.459h31.405c18.442,0,35.754,7.209,48.748,20.299
	c12.868,12.964,19.925,30.13,19.925,48.385c0,18.255-7.057,35.421-19.925,48.385c-12.994,13.09-30.306,20.299-48.748,20.299h-31.405
	c-15.009,0-29.122-5.846-39.737-16.459l-26.491,26.491c17.69,17.69,41.209,27.432,66.227,27.432h31.405
	c28.503,0,55.257-11.14,75.337-31.371c19.701-19.846,30.577-46.064,30.78-73.975h0.027c0.003-0.268-0.014-0.533-0.014-0.802
	C511.988,255.732,512.003,255.468,512,255.2z"/>
<rect x="106.145" y="237.272" style="fill:#DFDFE1;" width="299.711" height="37.464"/>
<rect x="256.003" y="237.272" style="fill:#CFCDD2;" width="149.855" height="37.464"/>
</svg>